<svg xmlns="http://www.w3.org/2000/svg" xmlns:xlink="http://www.w3.org/1999/xlink" width="207" height="64" viewBox="0 0 207 64"><defs><style>.a{fill:none;}.b{fill:#62738b;}.c{clip-path:url(#a);}.d{fill:#53b0ff;}.e,.f{fill:#398dff;}.e{opacity:0.451;}</style><clipPath id="a"><rect class="a" width="57" height="64" transform="translate(102 88)"/></clipPath></defs><g transform="translate(-102 -567)"><path class="b" d="M2.652-5.727V-18.193q0-5.267,5.318-5.267h9.416l1.727,1.333v1.733H8a1.678,1.678,0,0,0-1.9,1.9V-5.427A1.678,1.678,0,0,0,8-3.527h11.11v1.733L17.386-.46H7.97Q2.652-.46,2.652-5.727ZM24.668-.46v-23H35.812q5.352,0,5.352,5.267v3.7q0,4.267-3.59,5.067l4.268,8.2L41.4-.46H38.454l-4.539-8.8H28.123v8.8Zm3.455-11.867h7.655a1.693,1.693,0,0,0,1.931-1.9v-4.267a1.693,1.693,0,0,0-1.931-1.9H28.123ZM44.957-22.76l.44-.7h2.947l5.961,11.067,6-11.067h2.947l.406.7L56.033-8.86v8.4H52.578v-8.4ZM68.192-.46v-23H79.336q5.352,0,5.352,5.267v4.367q0,5.233-5.352,5.233H71.647V-.46Zm3.455-11.2H79.3a1.693,1.693,0,0,0,1.931-1.9v-4.933a1.693,1.693,0,0,0-1.931-1.9H71.647Zm16.665-8.733V-23.46h18.629v3.067H99.354V-.46H95.9V-20.393Zm21.3,19.2,7.621-11.1-7.181-10.433.373-.733h3.015l5.69,8.5,5.724-8.5h3.015l.339.733-7.147,10.433,7.587,11.1-.339.733H125.3l-6.165-9.167L113-.46h-3.015Z" transform="translate(180.348 610.46)"/><g class="c" transform="translate(0 479)"><path class="d" d="M2-14,30,0V36L2,22Z" transform="translate(100 116)"/><path class="e" d="M2,9.92v27l24.855-12.2Z" transform="translate(132 115.08)"/><path class="f" d="M10.593,10.593,37.586-1.414,27.66,27.66-1.414,37.586Z" transform="translate(130.577 73) rotate(45)"/></g></g></svg>